<svg viewBox="0 0 48 48" xmlns="http://www.w3.org/2000/svg" xmlns:xlink="http://www.w3.org/1999/xlink"><radialGradient id="a" cx="605.71" cy="486.65" gradientTransform="matrix(-2.7744 0 0 1.9697 112.76 -872.89)" gradientUnits="userSpaceOnUse" r="117.14" xlink:href="#b"/><linearGradient id="b"><stop offset="0"/><stop offset="1" stop-opacity="0"/></linearGradient><radialGradient id="c" cx="605.71" cy="486.65" gradientTransform="matrix(2.7744 0 0 1.9697 -1891.6 -872.89)" gradientUnits="userSpaceOnUse" r="117.14" xlink:href="#b"/><linearGradient id="d" gradientTransform="matrix(2.7744 0 0 1.9697 -1892.2 -872.89)" gradientUnits="userSpaceOnUse" x1="302.86" x2="302.86" y1="366.65" y2="609.51"><stop offset="0" stop-opacity="0"/><stop offset=".5"/><stop offset="1" stop-opacity="0"/></linearGradient><linearGradient id="e"><stop offset="0" stop-color="#b47002"/><stop offset="1" stop-color="#6b4301"/></linearGradient><linearGradient id="f" gradientUnits="userSpaceOnUse" x1="14.681" x2="38.694" y1="7.2187" y2="57.469"><stop offset="0" stop-color="#fff"/><stop offset="1" stop-color="#fff" stop-opacity="0"/></linearGradient><linearGradient id="g" gradientUnits="userSpaceOnUse" x1="25.25" x2="25.25" xlink:href="#e" y1="23.568" y2="19.169"/><linearGradient id="h" gradientUnits="userSpaceOnUse" x1="25.25" x2="25.25" xlink:href="#e" y1="36.681" y2="32.282"/><g transform="matrix(.019495 0 0 .020868 42.619 39.79)"><path d="m-1559.3-150.7h1339.6v478.36h-1339.6z" fill="url(#d)" opacity=".40206"/><path d="m-219.62-150.68v478.33c142.88.9 345.4-107.17 345.4-239.2 0-132.02-159.44-239.13-345.4-239.13z" fill="url(#c)" opacity=".40206"/><path d="m-1559.3-150.68v478.33c-142.8.9-345.4-107.17-345.4-239.2 0-132.02 159.5-239.13 345.4-239.13z" fill="url(#a)" opacity=".40206"/></g><g fill-rule="evenodd"><path d="m10.625 11.625v31h29v-31l-4-4h-21z" fill="#c17d11" stroke="#444329" stroke-linecap="round" stroke-linejoin="round"/><path d="m14.849 8.2252-3.723 3.8158 1.189.25h25.814l1.001-.25-3.863-3.8158z" fill="#e9b96e"/><g stroke-linecap="round" stroke-linejoin="round"><rect fill="#e9b96e" height="10.055" rx=".92857" stroke="#e9b96e" width="21" x="14.75" y="28.828"/><rect fill="#b67610" height="10.055" rx=".92857" stroke="#7b500b" width="21" x="14.573" y="28.475"/></g></g><path d="m11.681 12.062v29.591h26.888v-29.591l-3.402-3.4023h-20.084z" fill="none" stroke="url(#f)"/><g fill-rule="evenodd" stroke-linecap="round" stroke-linejoin="round"><rect fill="#e9b96e" height="10.055" rx=".92857" stroke="#e9b96e" width="21" x="14.75" y="15.716"/><g stroke="#7b500b"><rect fill="#b67610" height="10.055" rx=".92857" width="21" x="14.573" y="15.362"/><rect fill="url(#g)" height="3.8217" rx=".28663" ry=".33735" width="6.7474" x="21.744" y="21.569"/><rect fill="url(#h)" height="3.8217" rx=".28663" ry=".33735" width="6.7474" x="21.744" y="34.682"/></g></g></svg>