{"asset":{"version":"2.0","generator":"VECTARY"},"nodes":[{"translation":[0,0,0],"scale":[0.011106952411191204,0.011106952411191204,0.011106952411191204],"rotation":[-0.7071067811865475,0,0,0.7071067811865476],"name":"RootNode (gltf orientation matrix)","children":[1]},{"translation":[0,0,0],"scale":[1,1,1],"rotation":[0,0,0,1],"name":"RootNode (model correction matrix)","children":[2]},{"translation":[0,0,0],"scale":[1,1,1],"rotation":[0,0,0,1],"name":"Root","children":[3]},{"translation":[3.4379,0,-0.29077000000000003],"scale":[1,1,1],"rotation":[0,0,0,1],"name":"Ice Cube Tray.001","children":[4]},{"translation":[-3.5054912164184424,0.6226029931677028,0.33246181822311327],"scale":[1,1,1],"rotation":[0,0,0,1],"name":"Ice Cube Tray.001 1","mesh":0},{"translation":[0.013750148607864379,0.02602680312871344,0.23150892215725294],"scale":[1,1,1],"rotation":[-0.0644039485818953,0.030974493573078743,0.001999997520983565,0.9974410820519014],"name":"Camera","camera":0}],"materials":[{"pbrMetallicRoughness":{"baseColorFactor":[0.23024939790495974,0.3022898069765608,0.5642024375925112,0.15],"metallicFactor":0,"roughnessFactor":0.6},"name":"Material 1","emissiveFactor":[0,0,0],"alphaMode":"BLEND","doubleSided":true}],"meshes":[{"primitives":[{"mode":4,"attributes":{"POSITION":1,"NORMAL":2,"TEXCOORD_0":3},"material":0,"indices":0}]}],"accessors":[{"bufferView":0,"byteOffset":0,"componentType":5125,"count":14688,"type":"SCALAR"},{"bufferView":1,"byteOffset":0,"componentType":5126,"count":6289,"max":[1.3784350156784058,0.8610549569129944,1.0552600622177124],"min":[-1.3784350156784058,-0.8610549569129944,-2.220446049250313e-16],"type":"VEC3"},{"bufferView":2,"byteOffset":0,"componentType":5126,"count":6289,"type":"VEC3"},{"bufferView":3,"byteOffset":0,"componentType":5126,"count":6289,"type":"VEC2"}],"bufferViews":[{"buffer":0,"byteOffset":0,"byteLength":58752,"target":34963},{"buffer":0,"byteOffset":58752,"byteLength":75468,"target":34962},{"buffer":0,"byteOffset":134220,"byteLength":75468,"target":34962},{"buffer":0,"byteOffset":209688,"byteLength":50312,"target":34962}],"cameras":[{"name":"Camera","type":"perspective","extras":{"targetDistance":0.2040870084860943},"perspective":{"aspectRatio":1.5666666666666667,"yfov":0.6108652381980153,"zfar":27.71807813028461,"znear":0.0017921185449502625}}],"scene":0,"scenes":[{"nodes":[0,5],"name":"Project Name"}],"extensionsUsed":["KHR_texture_transform"],"buffers":[{"byteLength":260000,"uri":"ProjectName.bin"}]}